<svg xmlns="http://www.w3.org/2000/svg" viewBox="0 0 22 22" height="22" width="22"><title>construction.svg</title><rect fill="none" x="0" y="0" width="22" height="22"></rect><rect x="1" y="1" rx="9.5" ry="9.5" width="19" height="19" stroke="#ffffff" style="stroke-linejoin:round;stroke-miterlimit:4;" fill="#ffffff" stroke-width="3"></rect><rect x="1" y="1" width="19" height="19" rx="9.5" ry="9.5" fill="#e87b7c"></rect><path fill="#ffffff" transform="translate(3 3)" d="M13.5 11h-1.8L8.2.5C8-.2 7-.2 6.8.5L3.3 11H1.5c-.3 0-.5.2-.5.5v1c0 .3.2.5.5.5h12c.3 0 .5-.2.5-.5v-1c0-.3-.2-.5-.5-.5ZM7 3h1l.7 2H6.4L7 3ZM5.7 7h3.6l.7 2H5l.7-2Z"></path></svg>