<svg xmlns="http://www.w3.org/2000/svg" viewBox="0 0 22 22" height="22" width="22"><title>star-stroked.svg</title><rect fill="none" x="0" y="0" width="22" height="22"></rect><rect x="1" y="1" rx="9.5" ry="9.5" width="19" height="19" stroke="#ffffff" style="stroke-linejoin:round;stroke-miterlimit:4;" fill="#ffffff" stroke-width="3"></rect><rect x="1" y="1" width="19" height="19" rx="9.5" ry="9.5" fill="#806e6e"></rect><path fill="#ffffff" transform="translate(3 3)" d="m7.5 2.69 1.07 2.68.25.63h3l-2 1.75-.5.44.23.63 1 3.13-2.48-1.77-.57-.4-.57.4-2.52 1.77 1-3.13.21-.63-.5-.44-2-1.75h3l.25-.63zm0-2.69-2 5h-5l4 3.5-2 6 5-3.5 5 3.5-2-6 4-3.5h-5z"></path></svg>